<?xml version="1.0" standalone="no"?>
<!DOCTYPE svg PUBLIC "-//W3C//DTD SVG 20010904//EN"
 "http://www.w3.org/TR/2001/REC-SVG-20010904/DTD/svg10.dtd">
<svg version="1.0" xmlns="http://www.w3.org/2000/svg"
 width="576.000000pt" height="576.000000pt" viewBox="0 0 576.000000 576.000000"
 preserveAspectRatio="xMidYMid meet">
<metadata>
Created by potrace 1.15, written by Peter Selinger 2001-2017
</metadata>
<g transform="translate(0.000000,576.000000) scale(0.100000,-0.100000)"
fill="#000000" stroke="none">
<path d="M324 2835 c-105 -109 -120 -224 -45 -335 48 -72 94 -95 213 -109 82
-9 2069 -210 2088 -211 3 0 0 -4 -6 -8 -10 -6 -340 -1317 -399 -1586 -17 -75
-24 -130 -19 -150 37 -173 240 -260 377 -163 25 18 226 199 448 402 222 204
854 782 1403 1285 l999 915 -367 3 -367 2 -895 -821 c-493 -451 -898 -819
-900 -816 -3 2 50 222 116 488 156 624 164 659 150 726 -13 60 -76 140 -133
167 -40 18 -299 48 -1242 141 -368 37 -672 69 -675 72 -3 2 6 13 19 24 23 19
19 19 -350 19 l-372 0 -43 -45z"/>
</g>
</svg>
