<svg xmlns="http://www.w3.org/2000/svg" xmlns:xlink="http://www.w3.org/1999/xlink" width="256px" height="256px" viewBox="0 0 256 256" version="1" preserveAspectRatio="xMinYMin meet">
    <g>
        <path d="M256,87 C256,87 256,86 256,86 C256,86 256,86 255,86 C255,85 255,85 255,85 C255,85 255,84 255,84 C255,84 255,84 255,84 C254,83 254,83 254,83 C254,83 254,83 254,82 C254,82 254,82 253,82 C253,82 253,82 253,81 C253,81 253,81 252,81 C252,81 252,81 252,80 C252,80 251,80 251,80 C251,80 251,80 251,80 L134,2 C130,-1 126,-1 122,2 L5,80 C5,80 5,80 5,80 C5,80 4,80 4,80 C4,81 4,81 4,81 C3,81 3,81 3,81 C3,82 3,82 3,82 C2,82 2,82 2,82 C2,83 2,83 2,83 C2,83 2,83 1,84 C1,84 1,84 1,84 C1,84 1,85 1,85 C1,85 1,85 1,86 C0,86 0,86 0,86 C0,86 0,87 0,87 C0,87 0,87 0,88 C0,88 3e-14,88 3e-14,89 L3e-14,167 C3e-14,167 0,168 0,168 C0,169 0,169 0,169 C0,169 0,170 0,170 C0,170 1,170 1,170 C1,171 1,171 1,171 C1,171 1,172 1,172 C1,172 1,172 1,172 C2,173 2,173 2,173 C2,173 2,173 2,174 C2,174 3,174 3,174 C3,174 3,174 3,175 C3,175 3,175 4,175 C4,175 4,175 4,176 C4,176 5,176 5,176 C5,176 5,176 5,176 L122,254 C124,255 126,256 128,256 C130,256 132,255 134,254 L251,176 C251,176 251,176 251,176 C251,176 252,176 252,176 C252,175 252,175 252,175 C253,175 253,175 253,175 C253,174 253,174 253,174 C254,174 254,174 254,174 C254,173 254,173 254,173 C254,173 254,173 255,172 C255,172 255,172 255,172 C255,172 255,171 255,171 C255,171 255,171 255,170 C256,170 256,170 256,170 C256,170 256,169 256,169 C256,169 256,169 256,168 C256,168 256,167 256,167 L256,89 C256,89 256,88 256,88 C256,87 256,87 256,87 L256,87 Z M128,154 L89,128 L128,102 L167,128 L128,154 L128,154 Z M117,83 L69,115 L31,89 L117,32 L117,83 L117,83 Z M50,128 L22,146 L22,110 L50,128 L50,128 Z M69,141 L117,173 L117,224 L31,167 L69,141 L69,141 Z M139,173 L187,141 L225,167 L139,224 L139,173 L139,173 Z M206,128 L234,110 L234,146 L206,128 L206,128 Z M187,115 L139,83 L139,32 L225,89 L187,115 L187,115 Z"/>
    </g>
</svg>
